PathFileType	4	(X/Y/Z)	C:\Users\italobelli\Desktop\GitHub\PTbot_officialCBL\Personal_Results\FLX01_noisy1.trc
DataRate	CameraRate	NumFrames	NumMarkers	Units	OrigDataRate	OrigDataStartFrame	OrigNumFrames
106.533333	106.533333	42	9	m	106.533333	101	800
Frame#	Time		gu		centelbow		EpL		centpxt8		centijc7		ij		ts		aa		ai
			X1	Y1	Z1	X2	Y2	Z2	X3	Y3	Z3	X4	Y4	Z4	X5	Y5	Z5	X6	Y6	Z6	X7	Y7	Z7	X8	Y8	Z8	X9	Y9	Z9

101	0.93867	-0.072982	-0.019889	0.1661	-0.00025907	-0.24043	0.19678	0.011997	-0.22828	0.22418	-0.046816	-0.15316	-0.008669	-0.046816	0.031938	-0.008669	0	0	0	-0.14124	0.020272	0.052414	-0.1089	0.017757	0.16721	-0.15434	-0.09246	0.058885
102	0.94806	-0.072873	-0.019902	0.16605	0.002173	-0.23965	0.19719	0.014288	-0.2272	0.2245	-0.046816	-0.15316	-0.008669	-0.046816	0.031938	-0.008669	0	0	0	-0.14137	0.020123	0.05246	-0.10885	0.017737	0.1672	-0.15437	-0.092593	0.059072
103	0.95745	-0.072764	-0.019913	0.16599	0.0045878	-0.23885	0.19759	0.016561	-0.22609	0.2248	-0.046816	-0.15316	-0.008669	-0.046816	0.031938	-0.008669	0	0	0	-0.1415	0.019972	0.052506	-0.1088	0.017719	0.1672	-0.15439	-0.092727	0.059263
104	0.96683	-0.072655	-0.01992	0.16594	0.0069835	-0.23804	0.19796	0.018813	-0.22496	0.22506	-0.046816	-0.15316	-0.008669	-0.046816	0.031938	-0.008669	0	0	0	-0.14163	0.019819	0.052554	-0.10875	0.017703	0.16719	-0.1544	-0.092861	0.059458
105	0.97622	-0.072548	-0.019924	0.16589	0.0093582	-0.2372	0.19832	0.021044	-0.22381	0.22531	-0.046816	-0.15316	-0.008669	-0.046816	0.031938	-0.008669	0	0	0	-0.14176	0.019665	0.052602	-0.1087	0.017688	0.16718	-0.1544	-0.092995	0.059657
106	0.98561	-0.072441	-0.019925	0.16583	0.01171	-0.23634	0.19867	0.02325	-0.22263	0.22552	-0.046816	-0.15316	-0.008669	-0.046816	0.031938	-0.008669	0	0	0	-0.14189	0.019508	0.052651	-0.10864	0.017676	0.16718	-0.1544	-0.09313	0.05986
107	0.99499	-0.072335	-0.019922	0.16578	0.014038	-0.23546	0.19899	0.025431	-0.22143	0.2257	-0.046816	-0.15316	-0.008669	-0.046816	0.031938	-0.008669	0	0	0	-0.14202	0.019349	0.052701	-0.10859	0.017665	0.16717	-0.15438	-0.093265	0.060068
108	1.0044	-0.072229	-0.019911	0.16572	0.016349	-0.23454	0.19929	0.027594	-0.22019	0.22586	-0.046816	-0.15316	-0.008669	-0.046816	0.031938	-0.008669	0	0	0	-0.14215	0.019187	0.052754	-0.10853	0.017658	0.16717	-0.15436	-0.093402	0.060284
109	1.0138	-0.072119	-0.019861	0.16567	0.018709	-0.23348	0.19958	0.029798	-0.2188	0.22601	-0.046816	-0.15316	-0.008669	-0.046816	0.031938	-0.008669	0	0	0	-0.14228	0.019005	0.052822	-0.10846	0.017668	0.16716	-0.15432	-0.093555	0.060545
110	1.0232	-0.072003	-0.019766	0.1656	0.021126	-0.23224	0.19986	0.032052	-0.21726	0.22615	-0.046816	-0.15316	-0.008669	-0.046816	0.031938	-0.008669	0	0	0	-0.14241	0.018803	0.052906	-0.10837	0.017697	0.16715	-0.15428	-0.093725	0.060855
111	1.0325	-0.071883	-0.019629	0.16553	0.023597	-0.23085	0.20014	0.034354	-0.21556	0.22628	-0.046816	-0.15316	-0.008669	-0.046816	0.031938	-0.008669	0	0	0	-0.14254	0.018581	0.053007	-0.10826	0.017745	0.16714	-0.15422	-0.093912	0.061213
112	1.0419	-0.071757	-0.01945	0.16546	0.02612	-0.22931	0.20041	0.0367	-0.2137	0.22642	-0.046816	-0.15316	-0.008669	-0.046816	0.031938	-0.008669	0	0	0	-0.14267	0.01834	0.053123	-0.10813	0.01781	0.16713	-0.15416	-0.094114	0.061616
113	1.0513	-0.071628	-0.019231	0.16537	0.02869	-0.22761	0.20067	0.039087	-0.21171	0.22654	-0.046816	-0.15316	-0.008669	-0.046816	0.031938	-0.008669	0	0	0	-0.1428	0.01808	0.053254	-0.10799	0.017893	0.16712	-0.15408	-0.094332	0.062063
114	1.0607	-0.071494	-0.018974	0.16529	0.031305	-0.22577	0.20093	0.041514	-0.20957	0.22666	-0.046816	-0.15316	-0.008669	-0.046816	0.031938	-0.008669	0	0	0	-0.14294	0.017803	0.053399	-0.10783	0.017993	0.16711	-0.154	-0.094563	0.062553
115	1.0701	-0.071356	-0.018679	0.1652	0.033962	-0.22379	0.20118	0.043976	-0.20729	0.22678	-0.046816	-0.15316	-0.008669	-0.046816	0.031938	-0.008669	0	0	0	-0.14307	0.017508	0.053558	-0.10766	0.01811	0.16709	-0.15391	-0.094808	0.063084
116	1.0795	-0.071215	-0.018347	0.1651	0.036657	-0.22167	0.20142	0.046471	-0.20489	0.2269	-0.046816	-0.15316	-0.008669	-0.046816	0.031938	-0.008669	0	0	0	-0.14321	0.017198	0.053729	-0.10747	0.018243	0.16708	-0.1538	-0.095066	0.063654
117	1.0889	-0.071071	-0.017981	0.165	0.039386	-0.21942	0.20166	0.048995	-0.20236	0.22701	-0.046816	-0.15316	-0.008669	-0.046816	0.031938	-0.008669	0	0	0	-0.14334	0.016873	0.053912	-0.10727	0.018391	0.16706	-0.1537	-0.095335	0.064261
118	1.0982	-0.070923	-0.017581	0.16489	0.042148	-0.21704	0.20189	0.051547	-0.19971	0.22711	-0.046816	-0.15316	-0.008669	-0.046816	0.031938	-0.008669	0	0	0	-0.14348	0.016533	0.054106	-0.10706	0.018555	0.16704	-0.15358	-0.095615	0.064904
119	1.1076	-0.070773	-0.017149	0.16478	0.044938	-0.21455	0.20211	0.054122	-0.19694	0.22721	-0.046816	-0.15316	-0.008669	-0.046816	0.031938	-0.008669	0	0	0	-0.14362	0.01618	0.054311	-0.10684	0.018734	0.16702	-0.15345	-0.095906	0.065581
120	1.117	-0.070621	-0.016685	0.16466	0.047753	-0.21193	0.20234	0.056719	-0.19406	0.22731	-0.046816	-0.15316	-0.008669	-0.046816	0.031938	-0.008669	0	0	0	-0.14375	0.015814	0.054525	-0.10661	0.018927	0.167	-0.15332	-0.096205	0.066291
121	1.1264	-0.070466	-0.016192	0.16454	0.050591	-0.20921	0.20255	0.059334	-0.19107	0.22741	-0.046816	-0.15316	-0.008669	-0.046816	0.031938	-0.008669	0	0	0	-0.14389	0.015436	0.054749	-0.10636	0.019134	0.16697	-0.15318	-0.096514	0.067031
122	1.1358	-0.07031	-0.015671	0.16441	0.053447	-0.20638	0.20276	0.061964	-0.18798	0.2275	-0.046816	-0.15316	-0.008669	-0.046816	0.031938	-0.008669	0	0	0	-0.14403	0.015047	0.054981	-0.10611	0.019354	0.16695	-0.15304	-0.096829	0.0678
123	1.1452	-0.070152	-0.015123	0.16428	0.056319	-0.20345	0.20297	0.064607	-0.1848	0.22759	-0.046816	-0.15316	-0.008669	-0.046816	0.031938	-0.008669	0	0	0	-0.14417	0.014647	0.055222	-0.10584	0.019587	0.16692	-0.15288	-0.097152	0.068597
124	1.1546	-0.069992	-0.014549	0.16415	0.059203	-0.20042	0.20318	0.067259	-0.18152	0.22768	-0.046816	-0.15316	-0.008669	-0.046816	0.031938	-0.008669	0	0	0	-0.14431	0.014238	0.055469	-0.10557	0.019833	0.16689	-0.15273	-0.097481	0.069419
125	1.164	-0.069832	-0.013951	0.164	0.062096	-0.19731	0.20338	0.069918	-0.17816	0.22776	-0.046816	-0.15316	-0.008669	-0.046816	0.031938	-0.008669	0	0	0	-0.14445	0.013821	0.055722	-0.1053	0.020091	0.16686	-0.15256	-0.097816	0.070265
126	1.1733	-0.069671	-0.013329	0.16386	0.064995	-0.1941	0.20358	0.07258	-0.17472	0.22784	-0.046816	-0.15316	-0.008669	-0.046816	0.031938	-0.008669	0	0	0	-0.14459	0.013395	0.055981	-0.10501	0.020361	0.16683	-0.15239	-0.098154	0.071134
127	1.1827	-0.06951	-0.012686	0.16371	0.067897	-0.19082	0.20377	0.075243	-0.17119	0.22792	-0.046816	-0.15316	-0.008669	-0.046816	0.031938	-0.008669	0	0	0	-0.14474	0.012963	0.056246	-0.10472	0.020641	0.1668	-0.15222	-0.098497	0.072024
128	1.1921	-0.069349	-0.012022	0.16356	0.070798	-0.18745	0.20396	0.077904	-0.1676	0.228	-0.046816	-0.15316	-0.008669	-0.046816	0.031938	-0.008669	0	0	0	-0.14488	0.012524	0.056514	-0.10443	0.020933	0.16677	-0.15204	-0.098842	0.072932
129	1.2015	-0.069187	-0.011339	0.1634	0.073696	-0.18402	0.20415	0.080559	-0.16394	0.22808	-0.046816	-0.15316	-0.008669	-0.046816	0.031938	-0.008669	0	0	0	-0.14502	0.012079	0.056786	-0.10413	0.021235	0.16673	-0.15185	-0.099189	0.073858
130	1.2109	-0.069026	-0.010638	0.16323	0.076586	-0.18052	0.20434	0.083207	-0.16021	0.22815	-0.046816	-0.15316	-0.008669	-0.046816	0.031938	-0.008669	0	0	0	-0.14517	0.01163	0.057061	-0.10382	0.021546	0.16669	-0.15167	-0.099538	0.074799
131	1.2203	-0.068866	-0.0099209	0.16307	0.079466	-0.17695	0.20453	0.085844	-0.15643	0.22822	-0.046816	-0.15316	-0.008669	-0.046816	0.031938	-0.008669	0	0	0	-0.14531	0.011177	0.057338	-0.10352	0.021867	0.16665	-0.15147	-0.099887	0.075754
132	1.2297	-0.068707	-0.0091883	0.1629	0.082333	-0.17333	0.20471	0.088466	-0.15259	0.22829	-0.046816	-0.15316	-0.008669	-0.046816	0.031938	-0.008669	0	0	0	-0.14545	0.010721	0.057617	-0.10321	0.022197	0.16661	-0.15128	-0.10024	0.076722
133	1.239	-0.06855	-0.0084418	0.16272	0.085182	-0.16966	0.20489	0.091072	-0.14871	0.22836	-0.046816	-0.15316	-0.008669	-0.046816	0.031938	-0.008669	0	0	0	-0.1456	0.010263	0.057896	-0.1029	0.022535	0.16657	-0.15108	-0.10058	0.0777
134	1.2484	-0.068393	-0.0076827	0.16254	0.088012	-0.16594	0.20507	0.093659	-0.14479	0.22843	-0.046816	-0.15316	-0.008669	-0.046816	0.031938	-0.008669	0	0	0	-0.14574	0.0098035	0.058176	-0.10259	0.022881	0.16653	-0.15088	-0.10093	0.078687
135	1.2578	-0.068239	-0.0069124	0.16236	0.090819	-0.16218	0.20526	0.096222	-0.14082	0.2285	-0.046816	-0.15316	-0.008669	-0.046816	0.031938	-0.008669	0	0	0	-0.14589	0.0093433	0.058455	-0.10228	0.023234	0.16648	-0.15067	-0.10127	0.079682
136	1.2672	-0.068087	-0.006132	0.16217	0.093599	-0.15839	0.20544	0.09876	-0.13682	0.22857	-0.046816	-0.15316	-0.008669	-0.046816	0.031938	-0.008669	0	0	0	-0.14603	0.0088832	0.058733	-0.10197	0.023595	0.16643	-0.15047	-0.10161	0.080682
137	1.2766	-0.067937	-0.0053429	0.16198	0.096349	-0.15456	0.20562	0.10127	-0.1328	0.22863	-0.046816	-0.15316	-0.008669	-0.046816	0.031938	-0.008669	0	0	0	-0.14618	0.0084242	0.059008	-0.10166	0.023962	0.16639	-0.15026	-0.10195	0.081686
138	1.286	-0.06779	-0.0045465	0.16179	0.099067	-0.1507	0.2058	0.10375	-0.12875	0.2287	-0.046816	-0.15316	-0.008669	-0.046816	0.031938	-0.008669	0	0	0	-0.14632	0.0079669	0.059281	-0.10136	0.024336	0.16633	-0.15004	-0.10228	0.082692
139	1.2954	-0.067646	-0.0037441	0.16159	0.10175	-0.14682	0.20598	0.10619	-0.12468	0.22876	-0.046816	-0.15316	-0.008669	-0.046816	0.031938	-0.008669	0	0	0	-0.14647	0.0075123	0.059551	-0.10105	0.024715	0.16628	-0.14983	-0.1026	0.083698
140	1.3048	-0.067506	-0.0029369	0.16139	0.10439	-0.14292	0.20616	0.1086	-0.1206	0.22883	-0.046816	-0.15316	-0.008669	-0.046816	0.031938	-0.008669	0	0	0	-0.14661	0.007061	0.059817	-0.10075	0.025099	0.16623	-0.14962	-0.10292	0.084704
141	1.3141	-0.067369	-0.0021263	0.16118	0.10699	-0.13901	0.20635	0.11097	-0.11651	0.2289	-0.046816	-0.15316	-0.008669	-0.046816	0.031938	-0.008669	0	0	0	-0.14676	0.006614	0.060077	-0.10046	0.025489	0.16617	-0.1494	-0.10323	0.085707
142	1.3235	-0.067236	-0.0013136	0.16098	0.10954	-0.13509	0.20653	0.11329	-0.11242	0.22896	-0.046816	-0.15316	-0.008669	-0.046816	0.031938	-0.008669	0	0	0	-0.1469	0.0061721	0.060333	-0.10017	0.025882	0.16611	-0.14919	-0.10353	0.086705
